<?xml version="1.0" encoding="utf-8"?>
<!-- Generator: Adobe Illustrator 15.1.0, SVG Export Plug-In . SVG Version: 6.00 Build 0)  -->
<!DOCTYPE svg PUBLIC "-//W3C//DTD SVG 1.1//EN" "http://www.w3.org/Graphics/SVG/1.1/DTD/svg11.dtd">
<svg version="1.1" id="Capa_1" xmlns="http://www.w3.org/2000/svg" xmlns:xlink="http://www.w3.org/1999/xlink" x="0px" y="0px"
	 width="612.001px" height="612px" viewBox="-31 -162 612.001 612" enable-background="new -31 -162 612.001 612"
	 xml:space="preserve">
<g id="Close">
	<path d="M347.736,144.001l218.202-218.2c20.085-20.085,20.085-52.651,0-72.734c-20.086-20.085-52.648-20.085-72.734,0L275,71.271
		L56.796-146.936c-20.085-20.086-52.648-20.086-72.733,0c-20.083,20.085-20.083,52.651,0,72.733l218.204,218.201L-15.937,362.203
		c-20.083,20.085-20.083,52.65,0,72.732c20.085,20.087,52.648,20.087,72.733,0L275,216.732l218.202,218.203
		c20.083,20.086,52.648,20.086,72.734,0c20.085-20.086,20.085-52.647,0-72.732L347.736,144.001z"/>
</g>
</svg>
